<svg width="512" height="512" viewBox="0 0 512 512" fill="none" xmlns="http://www.w3.org/2000/svg">
<path d="M255.5 432C336.089 432 394 413.719 394 385L425 128H87L117 385C117 413.719 174.911 432 255.5 432Z" fill="#CFFAFE"/>
<path d="M394 385L386.554 384.102L386.5 384.549V385H394ZM117 385H124.5V384.564L124.449 384.13L117 385ZM87 128V120.5C84.8594 120.5 82.8209 121.415 81.3977 123.014C79.9745 124.613 79.3024 126.743 79.5506 128.87L87 128ZM425 128L432.446 128.898C432.703 126.768 432.035 124.63 430.612 123.024C429.188 121.419 427.146 120.5 425 120.5V128ZM386.5 385C386.5 389.362 384.383 393.973 378.802 398.773C373.135 403.647 364.387 408.236 352.605 412.152C329.095 419.967 295.348 424.5 255.5 424.5V439.5C296.241 439.5 331.744 434.893 357.336 426.387C370.106 422.143 380.872 416.777 388.583 410.146C396.378 403.441 401.5 394.998 401.5 385H386.5ZM255.5 424.5C215.652 424.5 181.905 419.967 158.395 412.152C146.613 408.236 137.865 403.647 132.198 398.773C126.617 393.973 124.5 389.362 124.5 385H109.5C109.5 394.998 114.622 403.441 122.417 410.146C130.128 416.777 140.894 422.143 153.664 426.387C179.256 434.893 214.759 439.5 255.5 439.5V424.5ZM79.5506 128.87L109.551 385.87L124.449 384.13L94.4494 127.13L79.5506 128.87ZM401.446 385.898L432.446 128.898L417.554 127.102L386.554 384.102L401.446 385.898ZM87 135.5H425V120.5H87V135.5Z" fill="black"/>
<path d="M425.5 127C425.5 129.421 423.535 133.649 415.103 138.943C407.054 143.996 394.908 148.823 379.233 152.985C347.993 161.281 304.421 166.5 256 166.5C207.579 166.5 164.007 161.281 132.767 152.985C117.092 148.823 104.946 143.996 96.8973 138.943C88.4654 133.649 86.5 129.421 86.5 127C86.5 124.579 88.4654 120.351 96.8973 115.057C104.946 110.004 117.092 105.177 132.767 101.015C164.007 92.7194 207.579 87.5 256 87.5C304.421 87.5 347.993 92.7194 379.233 101.015C394.908 105.177 407.054 110.004 415.103 115.057C423.535 120.351 425.5 124.579 425.5 127Z" fill="#B1D5D9" stroke="black" stroke-width="15"/>
<path d="M148.52 300.432C147.68 300.432 146.768 300.228 145.784 299.82C144.824 299.388 143.924 298.8 143.084 298.056H142.976L142.724 300H140.348V274.368H143.3V281.352L143.192 284.736H143.3C144.092 283.92 145.004 283.272 146.036 282.792C147.092 282.312 148.136 282.072 149.168 282.072C150.344 282.072 151.388 282.288 152.3 282.72C153.212 283.128 153.968 283.728 154.568 284.52C155.192 285.288 155.66 286.224 155.972 287.328C156.284 288.408 156.44 289.62 156.44 290.964C156.44 292.452 156.224 293.784 155.792 294.96C155.36 296.136 154.772 297.132 154.028 297.948C153.308 298.764 152.468 299.388 151.508 299.82C150.548 300.228 149.552 300.432 148.52 300.432ZM148.052 297.948C148.82 297.948 149.528 297.792 150.176 297.48C150.824 297.144 151.388 296.688 151.868 296.112C152.348 295.512 152.72 294.78 152.984 293.916C153.248 293.052 153.38 292.08 153.38 291C153.38 290.04 153.284 289.164 153.092 288.372C152.9 287.58 152.6 286.908 152.192 286.356C151.808 285.78 151.304 285.336 150.68 285.024C150.056 284.712 149.312 284.556 148.448 284.556C147.68 284.556 146.852 284.772 145.964 285.204C145.1 285.612 144.212 286.272 143.3 287.184V295.896C144.14 296.64 144.98 297.168 145.82 297.48C146.684 297.792 147.428 297.948 148.052 297.948ZM167.442 300.432C165.33 300.432 163.782 299.844 162.798 298.668C161.838 297.468 161.358 295.704 161.358 293.376V282.504H164.346V292.98C164.346 294.636 164.646 295.872 165.246 296.688C165.87 297.48 166.914 297.876 168.378 297.876C169.386 297.876 170.298 297.624 171.114 297.12C171.93 296.592 172.83 295.764 173.814 294.636V282.504H176.766V300H174.354L174.102 296.94H173.958C173.07 297.972 172.098 298.812 171.042 299.46C170.01 300.108 168.81 300.432 167.442 300.432ZM192.628 300.432C191.26 300.432 189.988 300.228 188.812 299.82C187.66 299.412 186.652 298.824 185.788 298.056C184.924 297.264 184.252 296.304 183.772 295.176C183.292 294.024 183.052 292.728 183.052 291.288C183.052 289.824 183.304 288.528 183.808 287.4C184.336 286.248 185.044 285.276 185.932 284.484C186.82 283.692 187.852 283.092 189.028 282.684C190.228 282.276 191.488 282.072 192.808 282.072C194.248 282.072 195.484 282.324 196.516 282.828C197.572 283.332 198.46 283.932 199.18 284.628L197.704 286.536C196.984 285.912 196.228 285.42 195.436 285.06C194.668 284.7 193.828 284.52 192.916 284.52C191.908 284.52 190.984 284.688 190.144 285.024C189.304 285.336 188.584 285.792 187.984 286.392C187.408 286.992 186.952 287.712 186.616 288.552C186.28 289.368 186.112 290.28 186.112 291.288C186.112 292.296 186.268 293.208 186.58 294.024C186.916 294.84 187.372 295.548 187.948 296.148C188.548 296.724 189.256 297.18 190.072 297.516C190.912 297.828 191.836 297.984 192.844 297.984C193.924 297.984 194.908 297.78 195.796 297.372C196.708 296.94 197.524 296.412 198.244 295.788L199.576 297.696C198.592 298.56 197.512 299.232 196.336 299.712C195.16 300.192 193.924 300.432 192.628 300.432ZM205.574 300V274.368H208.526V291.72H208.67L218.102 282.504H221.486L214.502 289.38L222.422 300H219.11L212.666 291.18L208.526 295.248V300H205.574ZM235.224 300.432C233.904 300.432 232.668 300.228 231.516 299.82C230.388 299.412 229.392 298.812 228.528 298.02C227.688 297.228 227.016 296.268 226.512 295.14C226.032 293.988 225.792 292.68 225.792 291.216C225.792 289.8 226.032 288.528 226.512 287.4C227.016 286.272 227.676 285.312 228.492 284.52C229.332 283.728 230.28 283.128 231.336 282.72C232.416 282.288 233.544 282.072 234.72 282.072C235.968 282.072 237.084 282.276 238.068 282.684C239.076 283.068 239.916 283.62 240.588 284.34C241.284 285.06 241.812 285.924 242.172 286.932C242.532 287.94 242.712 289.056 242.712 290.28C242.712 290.616 242.7 290.94 242.676 291.252C242.652 291.564 242.616 291.84 242.568 292.08H228.78C228.972 294.072 229.692 295.572 230.94 296.58C232.212 297.564 233.76 298.056 235.584 298.056C236.64 298.056 237.588 297.912 238.428 297.624C239.292 297.312 240.12 296.904 240.912 296.4L241.992 298.344C241.128 298.92 240.132 299.412 239.004 299.82C237.9 300.228 236.64 300.432 235.224 300.432ZM234.792 284.412C234.072 284.412 233.376 284.532 232.704 284.772C232.056 285.012 231.468 285.36 230.94 285.816C230.412 286.248 229.968 286.8 229.608 287.472C229.248 288.144 228.996 288.912 228.852 289.776H240.012C239.892 287.976 239.364 286.632 238.428 285.744C237.516 284.856 236.304 284.412 234.792 284.412ZM259.114 300.432C257.842 300.432 256.774 300.264 255.91 299.928C255.046 299.568 254.35 299.076 253.822 298.452C253.294 297.804 252.91 297.036 252.67 296.148C252.454 295.26 252.346 294.276 252.346 293.196V284.916H247.414V282.684L252.454 282.504L252.85 276.888H255.298V282.504H263.902V284.916H255.298V293.232C255.298 294.024 255.37 294.72 255.514 295.32C255.658 295.896 255.898 296.388 256.234 296.796C256.57 297.204 257.026 297.516 257.602 297.732C258.178 297.924 258.886 298.02 259.726 298.02C260.566 298.02 261.322 297.948 261.994 297.804C262.666 297.66 263.314 297.468 263.938 297.228L264.586 299.388C263.794 299.676 262.954 299.916 262.066 300.108C261.202 300.324 260.218 300.432 259.114 300.432ZM277.316 300.432C276.5 300.432 275.804 300.156 275.228 299.604C274.676 299.052 274.4 298.32 274.4 297.408C274.4 296.496 274.676 295.764 275.228 295.212C275.804 294.636 276.5 294.348 277.316 294.348C278.132 294.348 278.816 294.636 279.368 295.212C279.944 295.764 280.232 296.496 280.232 297.408C280.232 298.32 279.944 299.052 279.368 299.604C278.816 300.156 278.132 300.432 277.316 300.432ZM302.754 300.432C300.882 300.432 299.454 299.904 298.47 298.848C297.486 297.792 296.994 296.22 296.994 294.132V276.78H290.766V274.368H299.946V294.348C299.946 295.644 300.258 296.58 300.882 297.156C301.506 297.708 302.346 297.984 303.402 297.984C304.434 297.984 305.526 297.72 306.678 297.192L307.434 299.388C306.618 299.724 305.874 299.976 305.202 300.144C304.53 300.336 303.714 300.432 302.754 300.432ZM318.544 300.432C317.728 300.432 316.96 300.312 316.24 300.072C315.52 299.856 314.884 299.544 314.332 299.136C313.804 298.704 313.384 298.188 313.072 297.588C312.76 296.964 312.604 296.256 312.604 295.464C312.604 294.48 312.832 293.628 313.288 292.908C313.768 292.164 314.512 291.528 315.52 291C316.552 290.472 317.872 290.04 319.48 289.704C321.088 289.368 323.02 289.104 325.276 288.912C325.252 288.312 325.156 287.748 324.988 287.22C324.82 286.692 324.556 286.236 324.196 285.852C323.836 285.444 323.356 285.12 322.756 284.88C322.18 284.64 321.472 284.52 320.632 284.52C319.48 284.52 318.376 284.748 317.32 285.204C316.264 285.636 315.328 286.104 314.512 286.608L313.36 284.592C313.792 284.304 314.296 284.016 314.872 283.728C315.472 283.416 316.096 283.14 316.744 282.9C317.416 282.66 318.124 282.468 318.868 282.324C319.612 282.156 320.368 282.072 321.136 282.072C323.536 282.072 325.312 282.732 326.464 284.052C327.64 285.348 328.228 287.088 328.228 289.272V300H325.816L325.564 297.624H325.456C324.472 298.392 323.38 299.052 322.18 299.604C321.004 300.156 319.792 300.432 318.544 300.432ZM319.336 298.056C320.344 298.056 321.328 297.84 322.288 297.408C323.272 296.952 324.268 296.304 325.276 295.464V290.856C323.404 291 321.832 291.204 320.56 291.468C319.312 291.732 318.304 292.056 317.536 292.44C316.792 292.8 316.264 293.22 315.952 293.7C315.64 294.156 315.484 294.672 315.484 295.248C315.484 295.752 315.592 296.184 315.808 296.544C316.024 296.88 316.3 297.168 316.636 297.408C316.996 297.624 317.404 297.792 317.86 297.912C318.34 298.008 318.832 298.056 319.336 298.056ZM334.621 300V282.504H337.069L337.321 285.492H337.465C338.377 284.508 339.361 283.692 340.417 283.044C341.473 282.396 342.685 282.072 344.053 282.072C346.141 282.072 347.665 282.672 348.625 283.872C349.609 285.048 350.101 286.8 350.101 289.128V300H347.149V289.524C347.149 287.868 346.837 286.644 346.213 285.852C345.589 285.036 344.557 284.628 343.117 284.628C342.589 284.628 342.097 284.7 341.641 284.844C341.209 284.964 340.777 285.156 340.345 285.42C339.913 285.684 339.469 286.02 339.013 286.428C338.557 286.812 338.077 287.268 337.573 287.796V300H334.621ZM362.615 300.432C361.463 300.432 360.419 300.228 359.483 299.82C358.571 299.412 357.779 298.824 357.107 298.056C356.435 297.264 355.919 296.304 355.559 295.176C355.199 294.048 355.019 292.752 355.019 291.288C355.019 289.872 355.235 288.6 355.667 287.472C356.123 286.32 356.711 285.348 357.431 284.556C358.175 283.764 359.027 283.152 359.987 282.72C360.947 282.288 361.943 282.072 362.975 282.072C364.031 282.072 364.967 282.276 365.783 282.684C366.623 283.068 367.427 283.62 368.195 284.34H368.303L368.159 281.1V274.368H371.111V300H368.663L368.411 297.696H368.303C367.583 298.44 366.719 299.088 365.711 299.64C364.727 300.168 363.695 300.432 362.615 300.432ZM363.227 297.948C364.955 297.948 366.599 297.072 368.159 295.32V286.608C367.367 285.864 366.587 285.336 365.819 285.024C365.075 284.712 364.319 284.556 363.551 284.556C362.783 284.556 362.063 284.724 361.391 285.06C360.743 285.372 360.167 285.828 359.663 286.428C359.183 287.004 358.799 287.7 358.511 288.516C358.223 289.332 358.079 290.244 358.079 291.252C358.079 293.364 358.523 295.008 359.411 296.184C360.323 297.36 361.595 297.948 363.227 297.948Z" fill="#1CBACF"/>
</svg>
